<?xml version="1.0" encoding="iso-8859-1"?>
<!-- Generator: Adobe Illustrator 24.3.0, SVG Export Plug-In . SVG Version: 6.00 Build 0)  -->
<svg version="1.1" id="Wortmarke" xmlns="http://www.w3.org/2000/svg" xmlns:xlink="http://www.w3.org/1999/xlink" x="0px" y="0px"
	 viewBox="0 0 179.62 47.517" style="enable-background:new 0 0 179.62 47.517;" xml:space="preserve">
<g>
	<g>
		<path style="fill:#191915;" d="M74.842,9.411c-0.22-0.029-0.458-0.058-0.714-0.088c-0.256-0.029-0.545-0.044-0.867-0.044
			c-1.391,0-2.086,0.71-2.086,2.129v1.888h3.448v1.01h-3.448v9.966h-1.098v-9.966H67.88v-1.01h2.196v-1.932
			c0-0.409,0.066-0.801,0.198-1.174s0.326-0.703,0.582-0.988c0.256-0.286,0.578-0.508,0.966-0.669
			c0.388-0.161,0.838-0.242,1.351-0.242c0.322,0,0.615,0.011,0.878,0.033s0.527,0.055,0.791,0.099V9.411z"/>
		<path style="fill:#191915;" d="M86.108,24.273c-0.131,0.029-0.219,0.047-0.263,0.055s-0.132,0.011-0.264,0.011
			c-0.337,0-0.619-0.059-0.846-0.176c-0.227-0.117-0.406-0.274-0.538-0.472c-0.131-0.198-0.223-0.424-0.274-0.681
			c-0.051-0.256-0.077-0.53-0.077-0.823c-0.146,0.395-0.355,0.739-0.626,1.032c-0.271,0.293-0.582,0.538-0.934,0.735
			c-0.351,0.198-0.732,0.348-1.142,0.45c-0.41,0.102-0.828,0.153-1.252,0.153c-0.527,0-1.021-0.077-1.482-0.23
			c-0.461-0.153-0.864-0.376-1.208-0.669c-0.344-0.292-0.611-0.647-0.802-1.064c-0.19-0.417-0.285-0.889-0.285-1.416
			c0-0.98,0.34-1.752,1.021-2.316s1.57-0.882,2.668-0.955l4.041-0.285v-1.076c0-0.907-0.274-1.551-0.824-1.932
			c-0.549-0.38-1.241-0.571-2.075-0.571c-0.878,0-1.611,0.198-2.196,0.593c-0.586,0.395-0.908,1.003-0.966,1.822h-1.098
			c0.044-0.556,0.179-1.046,0.406-1.471c0.227-0.424,0.527-0.783,0.9-1.075c0.374-0.293,0.809-0.516,1.307-0.67
			c0.498-0.153,1.047-0.23,1.647-0.23c0.366,0,0.739,0.033,1.12,0.099c0.38,0.065,0.739,0.179,1.076,0.34
			c0.337,0.162,0.637,0.37,0.901,0.626c0.263,0.256,0.468,0.574,0.615,0.955c0.132,0.337,0.212,0.681,0.242,1.032
			c0.029,0.352,0.044,0.71,0.044,1.076v5.005c0,0.381,0.047,0.673,0.143,0.878c0.095,0.205,0.333,0.308,0.714,0.308
			c0.132,0,0.234-0.007,0.307-0.022V24.273z M83.847,18.631l-3.931,0.241c-0.82,0.059-1.472,0.289-1.955,0.691
			c-0.483,0.403-0.725,0.941-0.725,1.614c0,0.79,0.26,1.383,0.779,1.778c0.52,0.396,1.175,0.593,1.966,0.593
			c0.688,0,1.277-0.128,1.768-0.384s0.89-0.589,1.197-0.999c0.307-0.41,0.534-0.875,0.681-1.394c0.146-0.519,0.22-1.042,0.22-1.569
			V18.631z"/>
		<path style="fill:#191915;" d="M97.265,24.273l-3.865-5.861l-2.877,3.139v2.722h-1.12V8.423h1.12V19.97l6.171-6.673h1.384
			l-3.887,4.237l4.414,6.739H97.265z"/>
		<path style="fill:#191915;" d="M108.509,24.251l-0.132-1.998c-0.161,0.351-0.37,0.669-0.626,0.955
			c-0.256,0.285-0.549,0.527-0.878,0.724c-0.329,0.198-0.685,0.348-1.065,0.45c-0.381,0.102-0.762,0.154-1.142,0.154
			c-1.274,0-2.237-0.359-2.888-1.076c-0.651-0.717-0.977-1.698-0.977-2.942v-7.244h1.098v7.178c0,0.966,0.22,1.709,0.659,2.228
			c0.439,0.52,1.164,0.78,2.174,0.78c0.673,0,1.244-0.132,1.713-0.396c0.469-0.263,0.846-0.615,1.131-1.054
			c0.285-0.439,0.49-0.94,0.615-1.503c0.124-0.563,0.187-1.145,0.187-1.746v-5.488h1.098v10.976H108.509z"/>
		<path style="fill:#191915;" d="M117.008,24.273c-0.118,0.029-0.253,0.058-0.407,0.088c-0.153,0.029-0.348,0.044-0.582,0.044
			c-0.703,0-1.245-0.187-1.625-0.56c-0.381-0.373-0.571-0.962-0.571-1.767V8.423h1.098v13.61c0,0.381,0.073,0.695,0.219,0.944
			c0.146,0.249,0.454,0.374,0.923,0.374c0.219,0,0.391,0,0.516,0c0.124,0,0.267-0.015,0.428-0.044V24.273z"/>
		<path style="fill:#191915;" d="M125.287,24.163c-0.307,0.074-0.611,0.135-0.911,0.187c-0.3,0.051-0.604,0.077-0.912,0.077
			c-1.025,0-1.753-0.296-2.185-0.889c-0.432-0.593-0.648-1.365-0.648-2.316v-6.915h-2.196v-1.01h2.196v-3.03l1.098-0.263v3.293
			h3.404v1.01h-3.404v6.871c0,0.322,0.025,0.618,0.077,0.889c0.051,0.271,0.146,0.505,0.285,0.702
			c0.139,0.198,0.326,0.352,0.56,0.461c0.234,0.11,0.534,0.165,0.9,0.165c0.293,0,0.582-0.019,0.868-0.055
			c0.286-0.036,0.574-0.084,0.867-0.143V24.163z"/>
		<path style="fill:#191915;" d="M137.366,24.273c-0.131,0.029-0.219,0.047-0.263,0.055s-0.132,0.011-0.264,0.011
			c-0.337,0-0.619-0.059-0.846-0.176c-0.227-0.117-0.406-0.274-0.538-0.472c-0.131-0.198-0.223-0.424-0.274-0.681
			c-0.051-0.256-0.077-0.53-0.077-0.823c-0.146,0.395-0.355,0.739-0.626,1.032c-0.271,0.293-0.582,0.538-0.934,0.735
			c-0.351,0.198-0.732,0.348-1.142,0.45c-0.41,0.102-0.828,0.153-1.252,0.153c-0.527,0-1.021-0.077-1.482-0.23
			c-0.461-0.153-0.864-0.376-1.208-0.669c-0.344-0.292-0.611-0.647-0.802-1.064c-0.19-0.417-0.285-0.889-0.285-1.416
			c0-0.98,0.34-1.752,1.021-2.316s1.57-0.882,2.668-0.955l4.041-0.285v-1.076c0-0.907-0.274-1.551-0.824-1.932
			c-0.549-0.38-1.241-0.571-2.075-0.571c-0.878,0-1.611,0.198-2.196,0.593c-0.586,0.395-0.908,1.003-0.966,1.822h-1.098
			c0.044-0.556,0.179-1.046,0.406-1.471c0.227-0.424,0.527-0.783,0.9-1.075c0.374-0.293,0.809-0.516,1.307-0.67
			c0.498-0.153,1.047-0.23,1.647-0.23c0.366,0,0.739,0.033,1.12,0.099c0.38,0.065,0.739,0.179,1.076,0.34
			c0.337,0.162,0.637,0.37,0.901,0.626c0.263,0.256,0.468,0.574,0.615,0.955c0.132,0.337,0.212,0.681,0.242,1.032
			c0.029,0.352,0.044,0.71,0.044,1.076v5.005c0,0.381,0.047,0.673,0.143,0.878c0.095,0.205,0.333,0.308,0.714,0.308
			c0.132,0,0.234-0.007,0.307-0.022V24.273z M135.104,18.631l-3.931,0.241c-0.82,0.059-1.472,0.289-1.955,0.691
			c-0.483,0.403-0.725,0.941-0.725,1.614c0,0.79,0.26,1.383,0.779,1.778c0.52,0.396,1.175,0.593,1.966,0.593
			c0.688,0,1.277-0.128,1.768-0.384s0.89-0.589,1.197-0.999c0.307-0.41,0.534-0.875,0.681-1.394c0.146-0.519,0.22-1.042,0.22-1.569
			V18.631z M129.57,10.597V9.213h1.318v1.383H129.57z M133.611,10.597V9.213h1.318v1.383H133.611z"/>
		<path style="fill:#191915;" d="M145.755,24.163c-0.307,0.074-0.611,0.135-0.911,0.187c-0.3,0.051-0.604,0.077-0.912,0.077
			c-1.025,0-1.753-0.296-2.185-0.889c-0.432-0.593-0.648-1.365-0.648-2.316v-6.915h-2.196v-1.01h2.196v-3.03l1.098-0.263v3.293
			h3.404v1.01h-3.404v6.871c0,0.322,0.025,0.618,0.077,0.889c0.051,0.271,0.146,0.505,0.285,0.702
			c0.139,0.198,0.326,0.352,0.56,0.461c0.234,0.11,0.534,0.165,0.9,0.165c0.293,0,0.582-0.019,0.868-0.055
			c0.286-0.036,0.574-0.084,0.867-0.143V24.163z"/>
		<path style="fill:#191915;" d="M159.02,9.411c-0.22-0.029-0.458-0.058-0.714-0.088c-0.256-0.029-0.545-0.044-0.867-0.044
			c-1.391,0-2.086,0.71-2.086,2.129v1.888h3.448v1.01h-3.448v9.966h-1.098v-9.966h-2.196v-1.01h2.196v-1.932
			c0-0.409,0.066-0.801,0.198-1.174s0.326-0.703,0.582-0.988c0.256-0.286,0.578-0.508,0.966-0.669
			c0.388-0.161,0.838-0.242,1.351-0.242c0.322,0,0.615,0.011,0.878,0.033s0.527,0.055,0.791,0.099V9.411z"/>
		<path style="fill:#191915;" d="M168.574,24.251l-0.132-1.998c-0.161,0.351-0.37,0.669-0.626,0.955
			c-0.256,0.285-0.549,0.527-0.878,0.724c-0.329,0.198-0.685,0.348-1.065,0.45c-0.381,0.102-0.762,0.154-1.142,0.154
			c-1.274,0-2.237-0.359-2.888-1.076c-0.651-0.717-0.977-1.698-0.977-2.942v-7.244h1.098v7.178c0,0.966,0.22,1.709,0.659,2.228
			c0.439,0.52,1.164,0.78,2.174,0.78c0.673,0,1.244-0.132,1.713-0.396c0.469-0.263,0.846-0.615,1.131-1.054
			c0.285-0.439,0.49-0.94,0.615-1.503c0.124-0.563,0.187-1.145,0.187-1.746v-5.488h1.098v10.976H168.574z M162.468,10.597V9.213
			h1.318v1.383H162.468z M166.509,10.597V9.213h1.318v1.383H166.509z"/>
		<path style="fill:#191915;" d="M179.62,14.351c-0.176-0.044-0.355-0.073-0.538-0.088s-0.362-0.022-0.538-0.022
			c-0.688,0-1.255,0.139-1.702,0.417c-0.447,0.278-0.801,0.644-1.065,1.098s-0.45,0.966-0.56,1.537s-0.165,1.142-0.165,1.712v5.269
			h-1.098V13.297h0.966l0.132,2.217c0.249-0.761,0.699-1.339,1.351-1.734c0.651-0.395,1.365-0.593,2.141-0.593
			c0.176,0,0.355,0.004,0.538,0.011c0.183,0.008,0.362,0.026,0.538,0.055V14.351z"/>
		<path style="fill:#191915;" d="M69.264,33.204v-1.537h1.537v1.537H69.264z M69.461,47.231V36.255h1.164v10.976H69.461z"/>
		<path style="fill:#191915;" d="M82.704,47.231v-7.178c0-0.966-0.22-1.709-0.659-2.229c-0.439-0.519-1.164-0.779-2.174-0.779
			c-0.674,0-1.245,0.136-1.713,0.406c-0.469,0.271-0.846,0.625-1.131,1.064c-0.285,0.439-0.491,0.941-0.615,1.504
			c-0.125,0.563-0.187,1.138-0.187,1.723v5.488h-1.098V36.255h0.966l0.132,1.998c0.146-0.351,0.351-0.666,0.615-0.944
			s0.56-0.516,0.89-0.713c0.329-0.198,0.684-0.352,1.065-0.461c0.38-0.109,0.761-0.165,1.142-0.165c1.274,0,2.236,0.359,2.888,1.076
			c0.651,0.717,0.978,1.698,0.978,2.942v7.244H82.704z"/>
		<path style="fill:#191915;" d="M93.487,32.37c-0.22-0.029-0.458-0.058-0.714-0.088c-0.256-0.029-0.545-0.044-0.867-0.044
			c-1.391,0-2.086,0.71-2.086,2.129v1.888h3.448v1.01h-3.448v9.966h-1.098v-9.966h-2.196v-1.01h2.196v-1.932
			c0-0.409,0.066-0.801,0.198-1.174s0.326-0.703,0.582-0.988c0.256-0.286,0.578-0.508,0.966-0.669
			c0.388-0.161,0.838-0.242,1.351-0.242c0.322,0,0.615,0.011,0.878,0.033s0.527,0.055,0.791,0.099V32.37z"/>
		<path style="fill:#191915;" d="M104.029,41.743c0,0.937-0.117,1.771-0.352,2.503s-0.637,1.383-1.208,1.954
			c-0.381,0.381-0.838,0.695-1.373,0.944c-0.534,0.249-1.146,0.373-1.833,0.373c-0.688,0-1.3-0.125-1.834-0.373
			c-0.535-0.249-0.992-0.563-1.373-0.944c-0.571-0.571-0.974-1.222-1.208-1.954s-0.351-1.566-0.351-2.503
			c0-0.936,0.117-1.771,0.351-2.502c0.234-0.731,0.637-1.383,1.208-1.954c0.381-0.38,0.838-0.695,1.373-0.944
			c0.534-0.249,1.146-0.374,1.834-0.374c0.688,0,1.299,0.125,1.833,0.374c0.535,0.249,0.992,0.563,1.373,0.944
			c0.571,0.571,0.973,1.222,1.208,1.954C103.912,39.973,104.029,40.807,104.029,41.743z M102.909,41.743
			c0-0.717-0.081-1.39-0.242-2.02c-0.161-0.629-0.491-1.2-0.988-1.712c-0.293-0.292-0.637-0.527-1.032-0.702
			c-0.395-0.176-0.856-0.264-1.383-0.264c-0.527,0-0.988,0.088-1.384,0.264c-0.395,0.175-0.739,0.41-1.032,0.702
			c-0.498,0.513-0.827,1.083-0.988,1.712c-0.161,0.629-0.241,1.303-0.241,2.02c0,0.717,0.08,1.391,0.241,2.02s0.491,1.2,0.988,1.712
			c0.293,0.293,0.637,0.527,1.032,0.703c0.396,0.176,0.856,0.263,1.384,0.263c0.527,0,0.988-0.087,1.383-0.263
			c0.396-0.176,0.739-0.41,1.032-0.703c0.498-0.512,0.827-1.083,0.988-1.712S102.909,42.46,102.909,41.743z"/>
		<path style="fill:#191915;" d="M113.165,37.309c-0.176-0.044-0.355-0.073-0.538-0.088s-0.362-0.022-0.538-0.022
			c-0.688,0-1.255,0.139-1.702,0.417c-0.447,0.278-0.801,0.644-1.065,1.098s-0.45,0.966-0.56,1.537s-0.165,1.142-0.165,1.712v5.269
			h-1.098V36.255h0.966l0.132,2.217c0.249-0.761,0.699-1.339,1.351-1.734c0.651-0.395,1.365-0.593,2.141-0.593
			c0.176,0,0.355,0.004,0.538,0.011c0.183,0.008,0.362,0.026,0.538,0.055V37.309z"/>
		<path style="fill:#191915;" d="M130.03,47.231v-7.178c0-0.951-0.197-1.698-0.593-2.239s-1.069-0.813-2.021-0.813
			c-0.425,0-0.794,0.066-1.109,0.198c-0.315,0.132-0.597,0.315-0.846,0.549c-0.425,0.41-0.747,0.893-0.966,1.449
			c-0.22,0.557-0.33,1.164-0.33,1.822v6.212h-1.12v-7.178c0-0.951-0.202-1.698-0.604-2.239c-0.403-0.542-1.08-0.813-2.032-0.813
			c-0.425,0-0.794,0.066-1.109,0.198c-0.315,0.132-0.597,0.315-0.846,0.549c-0.498,0.468-0.842,1.054-1.032,1.756
			c-0.19,0.702-0.285,1.449-0.285,2.239v5.488h-1.098V36.255h0.966l0.132,1.888c0.292-0.629,0.725-1.148,1.295-1.559
			c0.571-0.41,1.252-0.615,2.042-0.615c0.966,0,1.731,0.216,2.295,0.647c0.563,0.432,0.956,1.007,1.175,1.724
			c0.292-0.688,0.728-1.255,1.307-1.702c0.578-0.446,1.321-0.669,2.229-0.669c0.644,0,1.197,0.099,1.658,0.296
			c0.461,0.198,0.838,0.476,1.131,0.834c0.293,0.358,0.509,0.783,0.648,1.273c0.139,0.491,0.208,1.028,0.208,1.614v7.244H130.03z"/>
		<path style="fill:#191915;" d="M144.416,47.231c-0.131,0.029-0.219,0.047-0.263,0.055s-0.132,0.011-0.264,0.011
			c-0.337,0-0.619-0.059-0.846-0.176c-0.227-0.117-0.406-0.274-0.538-0.472c-0.131-0.198-0.223-0.424-0.274-0.681
			c-0.051-0.256-0.077-0.53-0.077-0.823c-0.146,0.395-0.355,0.739-0.626,1.032c-0.271,0.293-0.582,0.538-0.934,0.735
			c-0.351,0.198-0.732,0.348-1.142,0.45c-0.41,0.102-0.828,0.153-1.252,0.153c-0.527,0-1.021-0.077-1.482-0.23
			c-0.461-0.153-0.864-0.376-1.208-0.669c-0.344-0.292-0.611-0.647-0.802-1.064c-0.19-0.417-0.285-0.889-0.285-1.416
			c0-0.98,0.34-1.752,1.021-2.316s1.57-0.882,2.668-0.955l4.041-0.285v-1.076c0-0.907-0.274-1.551-0.824-1.932
			c-0.549-0.38-1.241-0.571-2.075-0.571c-0.878,0-1.611,0.198-2.196,0.593c-0.586,0.395-0.908,1.003-0.966,1.822h-1.098
			c0.044-0.556,0.179-1.046,0.406-1.471c0.227-0.424,0.527-0.783,0.9-1.075c0.374-0.293,0.809-0.516,1.307-0.67
			c0.498-0.153,1.047-0.23,1.647-0.23c0.366,0,0.739,0.033,1.12,0.099c0.38,0.065,0.739,0.179,1.076,0.34
			c0.337,0.162,0.637,0.37,0.901,0.626c0.263,0.256,0.468,0.574,0.615,0.955c0.132,0.337,0.212,0.681,0.242,1.032
			c0.029,0.352,0.044,0.71,0.044,1.076v5.005c0,0.381,0.047,0.673,0.143,0.878c0.095,0.205,0.333,0.308,0.714,0.308
			c0.132,0,0.234-0.007,0.307-0.022V47.231z M142.154,41.59l-3.931,0.241c-0.82,0.059-1.472,0.289-1.955,0.691
			c-0.483,0.403-0.725,0.941-0.725,1.614c0,0.79,0.26,1.383,0.779,1.778c0.52,0.396,1.175,0.593,1.966,0.593
			c0.688,0,1.277-0.128,1.768-0.384s0.89-0.589,1.197-0.999c0.307-0.41,0.534-0.875,0.681-1.394c0.146-0.519,0.22-1.042,0.22-1.569
			V41.59z"/>
		<path style="fill:#191915;" d="M152.805,47.122c-0.307,0.074-0.611,0.135-0.911,0.187c-0.3,0.051-0.604,0.077-0.912,0.077
			c-1.025,0-1.753-0.296-2.185-0.889c-0.432-0.593-0.648-1.365-0.648-2.316v-6.915h-2.196v-1.01h2.196v-3.03l1.098-0.263v3.293
			h3.404v1.01h-3.404v6.871c0,0.322,0.025,0.618,0.077,0.889c0.051,0.271,0.146,0.505,0.285,0.702
			c0.139,0.198,0.326,0.352,0.56,0.461c0.234,0.11,0.534,0.165,0.9,0.165c0.293,0,0.582-0.019,0.868-0.055
			c0.286-0.036,0.574-0.084,0.867-0.143V47.122z"/>
		<path style="fill:#191915;" d="M155.704,33.204v-1.537h1.537v1.537H155.704z M155.901,47.231V36.255h1.164v10.976H155.901z"/>
		<path style="fill:#191915;" d="M169.43,47.231l-3.865-5.861l-2.877,3.139v2.722h-1.12v-15.85h1.12v11.547l6.171-6.673h1.384
			l-3.887,4.237l4.414,6.739H169.43z"/>
	</g>
	<rect x="35.561" y="0.026" style="fill:#C4002D;" width="6.597" height="6.597"/>
	<path style="fill:#8BB533;" d="M54.563,40.449v6.65h-7.49c-7.113,0-11.471-5.022-11.471-11.619l0.009-15.416l-17.272-0.001v27.063
		h-6.58V20.063H0v-6.571h11.76v-1.942C11.76,5.005,16.126,0,23.239,0h7.656v6.623h-7.656c-3.36,0-4.9,1.75-4.9,4.926v1.942h23.852
		L42.173,35.48c0,3.202,1.54,4.97,4.9,4.97H54.563z"/>
</g>
</svg>
